<mxfile host="app.diagrams.net" modified="2023-07-06T23:44:06.927Z" agent="Mozilla/5.0 (Windows NT 10.0; Win64; x64) AppleWebKit/537.36 (KHTML, like Gecko) Chrome/114.0.0.0 Safari/537.36" version="21.6.1" etag="AdUTfMM4OZotBqw5udpH" type="github">
  <diagram name="PÃ¡gina-1" id="fFq-9c7-PX-O4fi2H7aR">
    <mxGraphModel>
      <root>
        <mxCell id="0" />
        <mxCell id="1" parent="0" />
      </root>
    </mxGraphModel>
  </diagram>
</mxfile>
